<svg width="173" height="130" viewBox="0 0 173 130" fill="none" xmlns="http://www.w3.org/2000/svg">
<g clip-path="url(#clip0_0_371)">
<path d="M165.388 37.4152C157.002 25.4945 140.649 19.7645 127.972 24.7314C119.586 3.67433 89.5593 -3.95999 67.0461 1.91785C41.2693 8.64815 29.7825 34.1738 36.4759 56.8327C29.4087 55.3031 21.722 56.4271 15.2536 60.1429C2.50015 67.4747 -1.73946 83.2933 1.94294 96.8777C5.85377 111.304 18.1608 122.472 33.1396 124.29C45.6854 125.813 57.0545 121.327 67.0703 114.549C77.7819 131.089 103.919 132.643 122.691 127.157C134.669 123.658 145.477 116.594 152.409 106.162C156.123 100.576 159.283 92.9832 159.099 85.9435C175.871 78.6254 175.514 51.8039 165.391 37.4152H165.388Z" fill="#B8E9F5"/>
<path d="M115.344 81.25H59.6298C55.7838 81.25 52.6655 84.3683 52.6655 88.2143V89.9554C52.6655 93.8014 55.7838 96.9196 59.6298 96.9196H115.344C119.19 96.9196 122.308 93.8014 122.308 89.9554V88.2143C122.308 84.3683 119.19 81.25 115.344 81.25Z" fill="#3F51B5"/>
<path d="M94.4515 49.9108H80.5229C76.6769 49.9108 73.5586 53.029 73.5586 56.8751V58.6161C73.5586 62.4622 76.6769 65.5804 80.5229 65.5804H94.4515C98.2975 65.5804 101.416 62.4622 101.416 58.6161V56.8751C101.416 53.029 98.2975 49.9108 94.4515 49.9108Z" fill="#FFA726"/>
<path d="M106.639 64.5803H68.3354C64.4894 64.5803 61.3711 67.6986 61.3711 71.5446V73.2857C61.3711 77.1317 64.4894 80.25 68.3354 80.25H106.639C110.485 80.25 113.603 77.1317 113.603 73.2857V71.5446C113.603 67.6986 110.485 64.5803 106.639 64.5803Z" fill="#8BC34A"/>
<path d="M87.4871 79.9107C92.2949 79.9107 96.1925 76.0132 96.1925 71.2054C96.1925 66.3975 92.2949 62.5 87.4871 62.5C82.6793 62.5 78.7817 66.3975 78.7817 71.2054C78.7817 76.0132 82.6793 79.9107 87.4871 79.9107Z" fill="#F44336"/>
</g>
<defs>
<clipPath id="clip0_0_371">
<rect width="171.786" height="130" fill="white" transform="translate(0.665527)"/>
</clipPath>
</defs>
</svg>
