<svg width="190" height="130" viewBox="0 0 190 130" fill="none" xmlns="http://www.w3.org/2000/svg">
<g clip-path="url(#clip0_0_391)">
<path d="M189.229 72.0411C187.437 62.7077 182.396 54.7094 175.655 48.3779C176.954 29.9093 162.514 12.614 144.134 6.32704C128.578 1.00696 112.435 4.80586 101.883 14.9201C87.4073 -6.35214 44.7722 -2.58561 27.4843 11.8979C14.3434 22.9063 10.3906 41.3627 14.0682 58.0511C8.31504 62.3072 3.93743 68.5214 1.75672 75.2736C-5.74023 98.4918 15.3184 119.809 38.6144 115.84C40.1963 115.569 41.7621 115.16 43.2914 114.634C47.7176 118.113 52.6939 120.957 57.9171 123.069C75.5206 130.186 96.292 130.845 114.992 129.328C133.53 127.827 154.556 124.635 170.169 113.756C183.739 104.301 192.45 88.8186 189.233 72.0371L189.229 72.0411Z" fill="#B8E9F5"/>
<path d="M95.0589 100.459L61.3647 85.4834V44.3016L95.0589 59.2768V100.459Z" fill="#FFC107"/>
<path d="M95.0586 100.459L128.753 85.4834V44.3016L95.0586 59.2768V100.459Z" fill="#FF3D00"/>
<path d="M61.3647 44.3016L95.0589 29.3264L128.753 44.3016L95.0589 59.2768L61.3647 44.3016Z" fill="#43A047"/>
<path d="M82.0436 82.3535L74.337 78.8755L72.9893 82.8945L66.9805 80.1896L75.5369 59.2767L80.825 61.6615L89.4432 90.309L83.4045 87.5873L82.0436 82.3535ZM75.681 74.8696L80.6959 77.1328L78.1782 67.4101L75.681 74.8696Z" fill="#FFF8E1"/>
<path d="M102.546 90.0095V63.7824L112.093 59.7859C115.515 58.352 118.113 57.8822 119.899 58.3726C121.679 58.8612 122.572 60.2838 122.572 62.6349C122.572 63.992 122.257 65.2837 121.623 66.5116C120.992 67.734 120.06 68.829 118.83 69.8043C120.217 69.5853 121.286 69.8099 122.025 70.4838C122.765 71.1577 123.137 72.2059 123.137 73.6248C123.137 76.1912 122.314 78.4693 120.664 80.4498C119.015 82.4284 116.573 84.1093 113.338 85.487L102.546 90.0095ZM108.952 72.0337L112.293 70.6335C113.694 70.0364 114.691 69.3644 115.288 68.6231C115.88 67.88 116.183 67.0245 116.183 66.0661C116.183 64.9561 115.861 64.2915 115.214 64.0763C114.57 63.8573 113.529 64.0463 112.093 64.651L108.952 65.9632V72.0337ZM108.952 76.1743V82.4602L113.151 80.7043C114.309 80.2195 115.197 79.5868 115.818 78.8044C116.438 78.02 116.747 77.1552 116.747 76.208C116.747 74.0217 115.646 73.3815 113.443 74.2968L108.952 76.1743Z" fill="#FFCCBC"/>
<path d="M102.127 51.2107C100.639 51.7985 98.9391 52.1073 97.0242 52.1261C95.1092 52.1504 93.1007 51.8771 90.9967 51.3118C88.8945 50.7446 86.8748 49.9303 84.9373 48.8615C81.7401 47.1 80.0873 45.3217 79.9862 43.5341C79.8795 41.7464 81.407 40.1403 84.5705 38.727L85.5682 38.2796C87.5505 37.3886 89.6995 36.842 92.0169 36.6324C94.3324 36.4246 96.6779 36.5669 99.0514 37.061C101.419 37.559 103.628 38.3657 105.678 39.5001C108.63 41.1268 110.356 42.7254 110.859 44.2903C111.359 45.8589 110.597 47.2179 108.568 48.3748L102.72 45.1495C103.911 44.5711 104.422 43.9683 104.257 43.3431C104.089 42.7142 103.291 42.0028 101.857 41.2129C100.397 40.4061 98.8736 40.0242 97.2863 40.0561C95.6989 40.0879 93.8925 40.5446 91.8652 41.4169L90.4332 42.0609C88.2749 43.0305 87.0545 43.8991 86.7793 44.674C86.5079 45.4453 87.163 46.2726 88.7579 47.1487C90.1038 47.8937 91.3991 48.3448 92.6402 48.4983C93.8813 48.6518 95.1017 48.4871 96.2923 47.9985L102.127 51.2107Z" fill="#A5D6A7"/>
</g>
<defs>
<clipPath id="clip0_0_391">
<rect width="189.686" height="130" fill="white" transform="translate(0.21582)"/>
</clipPath>
</defs>
</svg>
