<svg width="42" height="42" viewBox="0 0 42 42" fill="none" xmlns="http://www.w3.org/2000/svg">
<path d="M21 0.843018C9.80005 0.843018 0.6875 9.95557 0.6875 21.1555C0.6875 32.3555 9.80005 41.468 21 41.468C32.2 41.468 41.3125 32.3555 41.3125 21.1555C41.3125 9.95557 32.2 0.843018 21 0.843018ZM21 3.96802C30.5093 3.96802 38.1875 11.6462 38.1875 21.1555C38.1875 30.6648 30.5093 38.343 21 38.343C11.4907 38.343 3.8125 30.6648 3.8125 21.1555C3.8125 11.6462 11.4907 3.96802 21 3.96802ZM23.7832 10.6575L14.4082 20.0325L13.334 21.1555L14.4082 22.2786L23.7832 31.6536L26.0293 29.4075L17.7773 21.1555L26.0293 12.9036L23.7832 10.6575Z" fill="#A5A5A5"/>
</svg>
