<svg width="28" height="21" viewBox="0 0 28 21" fill="none" xmlns="http://www.w3.org/2000/svg">
<path d="M1.68 0.97998C0.759063 0.97998 0 1.73904 0 2.65998V16.1C0 17.0209 0.759063 17.78 1.68 17.78H3.9725C4.23938 19.3681 5.61969 20.58 7.28 20.58C8.94031 20.58 10.3206 19.3681 10.5875 17.78H15.785C16.1919 17.78 16.5528 17.6028 16.835 17.3425C17.1238 17.6006 17.4934 17.78 17.92 17.78H18.5325C18.7994 19.3681 20.1797 20.58 21.84 20.58C23.6884 20.58 25.2 19.0684 25.2 17.22C25.2 15.3715 23.6884 13.86 21.84 13.86C20.1797 13.86 18.7994 15.0719 18.5325 16.66H17.92C17.8259 16.66 17.675 16.59 17.5525 16.4675C17.43 16.345 17.36 16.194 17.36 16.1V5.45998C17.36 5.36592 17.43 5.21498 17.5525 5.09248C17.675 4.96998 17.8259 4.89998 17.92 4.89998H22.4C22.8616 4.89998 23.5047 5.41842 23.905 5.91498L23.975 6.01998H21.28C20.3831 6.01998 19.6 6.74404 19.6 7.69998V9.93998C19.6 10.4059 19.81 10.815 20.1075 11.1125C20.405 11.41 20.8141 11.62 21.28 11.62H26.88V16.1C26.88 16.194 26.81 16.345 26.6875 16.4675C26.565 16.59 26.4141 16.66 26.32 16.66H25.2V17.78H26.32C26.7859 17.78 27.195 17.57 27.4925 17.2725C27.79 16.975 28 16.5659 28 16.1V10.7275C28 10.0975 27.7594 9.51998 27.545 9.08248C27.3306 8.64498 27.1075 8.32998 27.1075 8.32998V8.31248L24.815 5.23248H24.7975V5.21498C24.3009 4.59373 23.5047 3.77998 22.4 3.77998H17.92C17.7188 3.77998 17.535 3.81717 17.36 3.88498V2.65998C17.36 1.73904 16.6009 0.97998 15.68 0.97998H1.68ZM1.68 2.09998H15.68C15.9906 2.09998 16.24 2.34936 16.24 2.65998V16.205C16.24 16.4653 16.0453 16.66 15.785 16.66H10.5875C10.3206 15.0719 8.94031 13.86 7.28 13.86C5.61969 13.86 4.23938 15.0719 3.9725 16.66H1.68C1.36938 16.66 1.12 16.4106 1.12 16.1V2.65998C1.12 2.34936 1.36938 2.09998 1.68 2.09998ZM21.28 7.13998H24.815L26.1975 8.97748L26.215 8.99498C26.2259 9.01029 26.3769 9.22467 26.5475 9.57248C26.6897 9.86123 26.7641 10.2047 26.81 10.5H21.28C21.1859 10.5 21.035 10.43 20.9125 10.3075C20.79 10.185 20.72 10.034 20.72 9.93998V7.69998C20.72 7.42436 21.0569 7.13998 21.28 7.13998ZM2.8 7.69998V10.955H3.535V9.60748H4.865V9.04748H3.535V8.31248H5.04V7.69998H2.8ZM5.6 7.69998V10.8325H6.2125V9.60748H6.9475C7.45063 9.60748 7.45063 9.99686 7.5075 10.5C7.5075 10.6115 7.50313 10.7209 7.56 10.8325H8.295C8.18344 10.7209 8.1725 10.3294 8.1725 10.2725C8.1725 9.48936 7.84656 9.37998 7.735 9.37998C7.90344 9.32311 8.225 9.09561 8.225 8.59248C8.225 7.86404 7.56 7.69998 7.28 7.69998H5.6ZM8.96 7.69998V10.955H11.375V10.325H9.625V9.55498H11.2V8.99498H9.625V8.31248H11.305V7.69998H8.96ZM12.145 7.69998V10.955H14.56V10.325H12.8275V9.55498H14.385V8.99498H12.8275V8.31248H14.5075V7.69998H12.145ZM6.265 8.25998H7.0525C7.22094 8.25998 7.56 8.32342 7.56 8.71498C7.56 9.16342 7.22094 9.15248 7.0525 9.15248H6.265V8.25998ZM7.28 14.98C8.52469 14.98 9.52 15.9753 9.52 17.22C9.52 18.4647 8.52469 19.46 7.28 19.46C6.03531 19.46 5.04 18.4647 5.04 17.22C5.04 15.9753 6.03531 14.98 7.28 14.98ZM21.84 14.98C23.0847 14.98 24.08 15.9753 24.08 17.22C24.08 18.4647 23.0847 19.46 21.84 19.46C20.5953 19.46 19.6 18.4647 19.6 17.22C19.6 15.9753 20.5953 14.98 21.84 14.98Z" fill="#F7F7F6"/>
</svg>
