<svg width="42" height="50" viewBox="0 0 42 50" fill="none" xmlns="http://www.w3.org/2000/svg">
<path d="M19.2496 4.03861C18.9536 2.85344 17.0534 4.54364 17.7851 5.27581C18.1915 5.68059 19.4045 4.65658 19.2496 4.03861Z" fill="#6CBA28" fill-opacity="0.5"/>
<path d="M3.76142 6.90257C4.50954 7.30989 5.03666 6.50921 4.41047 5.91535C3.18477 4.75175 1.94637 5.91535 3.76142 6.90257Z" fill="#6CBA28" fill-opacity="0.5"/>
<path d="M19.0871 21.2604C19.698 21.6677 20.2594 20.9483 19.792 20.3544C18.6514 18.904 17.3711 20.1171 19.0871 21.2604Z" fill="#6CBA28" fill-opacity="0.5"/>
<path d="M4.07 20.4077C2.71602 21.82 3.96077 22.9011 4.86512 21.2376C5.4532 20.1539 4.8829 19.5575 4.07 20.4077Z" fill="#6CBA28" fill-opacity="0.5"/>
<path d="M12.1699 0.0592207C10.4488 -0.862014 11.7926 9.24746 10.3993 10.7308C9.84038 11.3221 6.71707 6.8695 5.83685 7.66258C5.56927 7.90452 6.51342 9.06178 8.6693 11.1343C9.3374 11.7751 9.3247 11.7345 8.93731 11.9617C7.7332 12.6647 -1.30651 11.411 0.160522 13.2217C0.456468 13.5884 7.42328 13.0999 8.7671 13.7115C9.28025 13.9463 9.27898 13.9526 8.34287 15.0604C5.86606 17.9954 5.55742 18.4814 5.92576 18.8722C6.53798 19.5232 6.79709 18.4941 9.70956 15.3142C11.5386 13.3182 9.81753 27.3029 11.0966 27.8574C11.9679 28.2381 11.9336 27.3714 11.8574 25.5734C11.7736 23.6091 11.4027 16.6694 12.7694 15.2939C14.1576 16.5755 16.0845 19.0867 16.9368 19.0867C17.6823 19.0867 17.7433 18.3037 17.0333 17.8609C16.6954 17.6502 15.9537 16.8483 13.5416 14.2787C15.6044 12.5492 21.7595 13.7508 22.2143 12.907C22.8506 11.713 20.7739 12.0416 19.2357 12.0556C11.6999 12.1304 12.3451 12.3119 16.5887 7.7679C17.488 6.80606 17.5693 6.61699 17.2327 6.28073C16.7627 5.81123 16.3766 6.11831 13.8058 9.00764C12.6106 10.3502 12.6589 10.326 12.4658 9.67382C11.9412 7.91129 12.8468 0.420862 12.1699 0.0592207Z" fill="#6CBA28" fill-opacity="0.5"/>
<path d="M41.4597 30.4727C40.9275 29.7976 39.6014 31.2467 40.1184 31.7632C40.6366 32.2822 41.9157 31.0526 41.4597 30.4727Z" fill="#6CBA28" fill-opacity="0.5"/>
<path d="M26.539 30.946C25.6779 30.946 25.89 31.9599 26.8807 32.5817C27.2897 32.838 27.7622 32.6197 27.7622 32.1744C27.7622 31.8711 26.8426 30.946 26.539 30.946Z" fill="#6CBA28" fill-opacity="0.5"/>
<path d="M37.9855 33.4167C37.3047 34.2224 37.2285 34.4864 37.5956 34.7655C37.8483 34.9571 38.1354 34.8759 38.486 34.513C39.5542 33.4027 39.7421 33.0081 39.3611 32.6642C39.0232 32.3584 38.7565 32.5056 37.9855 33.4179V33.4167Z" fill="#6CBA28" fill-opacity="0.5"/>
<path d="M28.2843 33.4508C28.1535 33.796 29.9037 35.8491 30.6785 36.259C31.3225 36.6003 31.6654 35.8504 31.1383 35.2603C29.2013 33.0854 28.5739 32.6882 28.2843 33.4508Z" fill="#6CBA28" fill-opacity="0.5"/>
<path d="M38.556 44.7481C38.951 44.9625 39.3714 44.7201 39.3714 44.2748C39.3714 43.8865 37.4712 42.025 37.0724 42.0237C36.5224 42.0212 36.3992 42.5173 36.8209 43.0414C37.1296 43.4246 38.3756 44.6491 38.556 44.7481Z" fill="#6CBA28" fill-opacity="0.5"/>
<path d="M29.0655 45.6705C29.1785 45.6108 30.7967 43.7443 31.0419 43.3915C31.4254 42.8408 30.7751 42.266 30.2582 42.7012C30.0194 42.9017 28.4076 44.7201 28.3034 44.9091C28.024 45.4078 28.532 45.9572 29.0668 45.6705H29.0655Z" fill="#6CBA28" fill-opacity="0.5"/>
<path d="M41.8494 46.4991C41.8494 45.9141 40.7025 45.3076 40.3049 45.6819C39.5441 46.3938 41.8494 47.6551 41.8494 46.4991Z" fill="#6CBA28" fill-opacity="0.5"/>
<path d="M26.8833 46.5866C26.3156 47.1221 26.2051 47.5116 26.5353 47.8187C26.8351 48.0979 27.1501 47.9684 27.6276 47.3759C28.344 46.4838 27.7077 45.8087 26.8833 46.5866Z" fill="#6CBA28" fill-opacity="0.5"/>
<path d="M34.5739 29.4868C33.8614 29.2127 33.8004 29.3789 33.7522 31.7696C33.6239 38.052 33.4181 38.656 31.3389 38.8298C28.4162 39.0747 27.6783 39.2828 27.7888 39.8323C27.8853 40.3195 27.9044 40.3221 30.0751 40.1064C33.5324 39.7612 33.5705 39.9439 33.2619 47.9026C33.2162 49.084 33.2377 49.1728 33.5972 49.3238C35.5545 50.1422 33.5972 41.5428 35.4681 39.9681C36.1248 39.4161 40.2173 40.0087 40.2173 38.9478C40.2173 38.2905 40.014 38.2639 36.8259 38.4948C35.0668 38.6217 34.7403 37.9086 34.8712 34.2059C34.9868 30.946 34.9029 29.615 34.5714 29.4868H34.5739Z" fill="#6CBA28" fill-opacity="0.5"/>
</svg>
