<svg width="49" height="41" viewBox="0 0 49 41" fill="none" xmlns="http://www.w3.org/2000/svg">
<path d="M4.7231 10.834C6.50039 11.6384 8.45077 8.15983 9.08905 3.04313C9.58206 -0.890889 6.83576 -1.05455 5.15428 2.80845C4.8421 3.52639 4.99355 3.49243 4.61491 2.99682C2.36007 0.043212 -0.253325 1.5424 0.75896 5.21086C1.30451 7.18713 3.47745 10.2673 4.7231 10.8324V10.834Z" fill="#FF9770" fill-opacity="0.5"/>
<path d="M45.4138 15.4381C47.0845 15.9199 48.0643 9.22523 48.038 8.50883C47.9623 6.46616 46.2391 5.54441 44.4263 8.22319C42.921 6.35499 41.5455 7.53921 41.5439 9.30087C41.5439 11.3605 43.8204 14.9719 45.4138 15.4366V15.4381Z" fill="#FF9770" fill-opacity="0.5"/>
<path d="M21.6365 16.6534C22.2547 16.0374 23.8466 11.285 24.0784 9.37515C24.4354 6.40611 22.2516 5.79161 20.2734 9.35508C16.997 5.85491 15.6108 8.2496 16.6153 11.2264C17.2783 13.1841 20.1544 18.1387 21.6365 16.6549V16.6534Z" fill="#FF9770" fill-opacity="0.5"/>
<path d="M30.7764 26.3925C31.8474 27.2402 32.8551 25.6808 34.0203 21.3669C34.8904 18.1431 32.481 17.0979 30.8351 19.9851C30.5075 20.561 30.6373 20.5069 30.3638 20.2537C27.4923 17.6043 25.4321 22.1544 30.7764 26.3941V26.3925Z" fill="#FF9770" fill-opacity="0.5"/>
<path d="M17.5783 35.5188C18.7962 35.965 20.6445 32.4664 21.578 27.9426C22.3492 24.2093 19.1593 23.5546 17.3929 27.081C16.9648 27.9333 17.0235 27.9009 16.5568 27.5442C14.0253 25.6174 11.9312 26.939 13.0037 29.7876C13.6837 31.5941 16.5042 35.1266 17.5783 35.5188Z" fill="#FF9770" fill-opacity="0.5"/>
<path d="M40.462 40.2173C41.462 40.6527 42.0353 39.7032 42.8915 36.203C43.961 31.8259 41.9689 30.1352 39.884 33.6493C39.442 34.3935 39.6862 34.3641 38.9954 33.6662C36.9971 31.6421 35.1781 33.095 36.4562 35.6935C37.1145 37.0336 39.6043 39.8467 40.4589 40.2173H40.462Z" fill="#FF9770" fill-opacity="0.5"/>
</svg>
