<svg width="57" height="54" viewBox="0 0 57 54" fill="none" xmlns="http://www.w3.org/2000/svg">
<g clip-path="url(#clip0_0_531)">
<path d="M24.7552 45.7138C25.4456 46.0773 28.3923 44.6439 26.1332 43.4151C19.5311 39.8146 15.7515 31.4483 11.5553 35.5739C6.90757 40.1427 14.0173 40.0668 24.7527 45.7153L24.7552 45.7138Z" fill="#F79595" fill-opacity="0.5"/>
<path d="M33.5677 43.5288C34.1891 43.2329 34.7528 42.2848 34.4154 42.1075C34.3483 42.0705 34.389 41.8661 34.5072 41.6507C35.1713 40.4213 33.832 39.4103 33.6207 29.2126C33.1545 6.99169 33.0865 5.96764 32.7027 5.60314C31.1187 4.10505 25.7471 7.49743 25.9485 9.87056C25.9533 9.93202 29.9454 45.2632 33.5677 43.5288Z" fill="#F79595" fill-opacity="0.5"/>
<path d="M48.3343 23.1118C50.3416 18.828 50.3476 18.4229 48.4266 18.4607C46.0986 18.5061 44.018 19.6732 43.2326 21.3716C42.5137 22.9284 38.9988 36.9676 38.7037 39.4481C38.5601 40.6839 39.5365 40.9867 40.6265 40.0435C42.0128 38.8459 43.1497 34.1699 48.3343 23.1118Z" fill="#F79595" fill-opacity="0.5"/>
</g>
<defs>
<clipPath id="clip0_0_531">
<rect width="44" height="34.9979" fill="white" transform="translate(0.908691 23.6797) rotate(-32.0831)"/>
</clipPath>
</defs>
</svg>
