<svg width="50" height="51" viewBox="0 0 50 51" fill="none" xmlns="http://www.w3.org/2000/svg">
<path d="M25 5.31104C13.8 5.31104 4.6875 14.4236 4.6875 25.6235C4.6875 36.8235 13.8 45.936 25 45.936C36.2 45.936 45.3125 36.8235 45.3125 25.6235C45.3125 14.4236 36.2 5.31104 25 5.31104ZM25 8.43604C34.5093 8.43604 42.1875 16.1143 42.1875 25.6235C42.1875 35.1328 34.5093 42.811 25 42.811C15.4907 42.811 7.8125 35.1328 7.8125 25.6235C7.8125 16.1143 15.4907 8.43604 25 8.43604ZM22.2168 15.1255L19.9707 17.3716L28.2227 25.6235L19.9707 33.8755L22.2168 36.1216L31.5918 26.7466L32.666 25.6235L31.5918 24.5005L22.2168 15.1255Z" fill="#A5A5A5"/>
</svg>
