<svg width="33" height="33" viewBox="0 0 33 33" fill="none" xmlns="http://www.w3.org/2000/svg">
<path d="M16.4999 0.531738C7.6218 0.531738 0.399902 7.75364 0.399902 16.6317C0.399902 25.5098 7.6218 32.7317 16.4999 32.7317C25.378 32.7317 32.5999 25.5098 32.5999 16.6317C32.5999 7.75364 25.378 0.531738 16.4999 0.531738ZM24.3658 13.4985C24.3728 13.6637 24.377 13.8317 24.377 14.0004C24.377 19.123 20.4759 25.0317 13.3436 25.0317C11.154 25.0317 9.1149 24.3898 7.3999 23.2894C7.703 23.3258 8.0103 23.3433 8.3246 23.3433C10.1418 23.3433 11.8141 22.7245 13.1399 21.6843C11.4431 21.6535 10.0123 20.53 9.5174 18.9914C9.7547 19.0369 9.9976 19.0614 10.2482 19.0614C10.6017 19.0614 10.9447 19.0145 11.2688 18.9249C9.4964 18.5672 8.1601 17.002 8.1601 15.1225C8.1601 15.1057 8.1601 15.0896 8.1601 15.0735C8.683 15.364 9.2801 15.539 9.9164 15.5593C8.8748 14.8628 8.1916 13.677 8.1916 12.3316C8.1916 11.6211 8.382 10.9554 8.7159 10.3814C10.629 12.7271 13.4864 14.2706 16.7085 14.433C16.642 14.1488 16.607 13.8534 16.607 13.5496C16.607 11.4083 18.343 9.67234 20.485 9.67234C21.6001 9.67234 22.6074 10.1427 23.3144 10.8966C24.1971 10.723 25.028 10.4003 25.777 9.95654C25.4879 10.8609 24.8726 11.6211 24.0711 12.1013C24.8565 12.0061 25.6027 11.7989 26.2992 11.4902C25.7798 12.2679 25.1225 12.9518 24.3658 13.4985Z" fill="#F26C62"/>
</svg>
