<svg width="191" height="146" viewBox="0 0 191 146" fill="none" xmlns="http://www.w3.org/2000/svg">
<g clip-path="url(#clip0_0_379)">
<path d="M169.113 73.7216C165.635 58.6326 154.91 43.5889 139.002 39.3247C130.681 37.0948 121.419 38.1138 113.817 41.9802C113.999 24.4485 105.152 6.7528 86.614 1.59518C73.8176 -1.9677 60.4595 3.43071 53.7519 13.4668C45.0624 9.20947 33.8937 9.3665 25.2614 14.053C8.57278 23.119 2.00108 43.7285 0.348313 61.1242C-1.27941 78.2232 3.8184 96.8262 18.4285 107.455C28.9926 115.14 43.449 118.106 55.6765 113.496C65.0351 125.898 81.4733 131.956 97.2783 130.197C108.272 128.972 123.93 123.7 132.154 114.449C138.508 117.551 146.407 117.931 153.301 115.154C169.649 108.558 172.568 88.7059 169.116 73.7216H169.113Z" fill="#B8E9F5"/>
<path d="M112.062 72.1357H101.437L90.0934 58.1616C89.4364 57.2017 88.3296 56.6261 87.1467 56.6261H85.1988H55.3957C53.4389 56.6261 51.854 58.1684 51.854 60.0727V94.5386H85.1988H89.0415H115.604C117.561 94.5386 119.146 92.9962 119.146 91.092V82.4755C119.146 73.859 112.062 72.1357 112.062 72.1357Z" fill="#F44336"/>
<path d="M74.8752 42.8397C71.9409 42.8397 69.5627 45.1541 69.5627 48.0096H66.021C66.021 45.1541 63.6428 42.8397 60.7085 42.8397C57.7742 42.8397 55.396 45.1541 55.396 48.0096C55.396 50.8651 57.7742 53.1795 60.7085 53.1795H66.021V56.6261H69.5627V53.1795H74.8752C77.8094 53.1795 80.1877 50.8651 80.1877 48.0096C80.1877 45.1541 77.8094 42.8397 74.8752 42.8397Z" fill="#78909C"/>
<path d="M62.479 104.878C68.347 104.878 73.104 100.249 73.104 94.5386C73.104 88.8281 68.347 84.1989 62.479 84.1989C56.611 84.1989 51.854 88.8281 51.854 94.5386C51.854 100.249 56.611 104.878 62.479 104.878Z" fill="#37474F"/>
<path d="M101.438 104.878C107.306 104.878 112.062 100.249 112.062 94.5386C112.062 88.8281 107.306 84.1989 101.438 84.1989C95.5695 84.1989 90.8125 88.8281 90.8125 94.5386C90.8125 100.249 95.5695 104.878 101.438 104.878Z" fill="#37474F"/>
<path d="M62.479 99.7085C65.413 99.7085 67.7915 97.3939 67.7915 94.5387C67.7915 91.6834 65.413 89.3688 62.479 89.3688C59.545 89.3688 57.1665 91.6834 57.1665 94.5387C57.1665 97.3939 59.545 99.7085 62.479 99.7085Z" fill="#78909C"/>
<path d="M101.438 99.7085C104.372 99.7085 106.75 97.3939 106.75 94.5387C106.75 91.6834 104.372 89.3688 101.438 89.3688C98.5035 89.3688 96.125 91.6834 96.125 94.5387C96.125 97.3939 98.5035 99.7085 101.438 99.7085Z" fill="#78909C"/>
<path d="M58.9373 61.796H84.6711C85.197 61.796 85.6946 62.0235 86.0311 62.4164L94.354 72.1358H58.9373C57.9598 72.1358 57.1665 71.3638 57.1665 70.4125V63.5193C57.1665 62.5681 57.9598 61.796 58.9373 61.796Z" fill="#81D4FA"/>
</g>
<defs>
<clipPath id="clip0_0_379">
<rect width="190" height="145" fill="white" transform="translate(0.0585938 0.5)"/>
</clipPath>
</defs>
</svg>
