<svg width="217" height="146" viewBox="0 0 217 146" fill="none" xmlns="http://www.w3.org/2000/svg">
<g clip-path="url(#clip0_0_402)">
<path d="M189.813 62.1113C183.24 52.3204 171.076 48.506 159.995 50.4936C160.588 25.046 140.222 1.17034 112.76 0.516716C83.1827 -0.190536 60.0344 22.4918 56.0758 49.5551C39.4771 35.8994 12.2128 38.8491 2.70675 62.2186C-7.69422 87.7936 14.2742 110.704 38.2805 108.485C41.2805 121.537 56.0925 129.575 69.9192 130.386C87.5837 131.425 104.91 125.308 119.021 114.961C137.085 130.996 166.427 126.263 178.551 104.583C192.917 96.2237 199.752 76.9201 189.81 62.108L189.813 62.1113Z" fill="#B8E9F5"/>
<path d="M81.5949 52.1525C76.1992 52.1525 71.8095 56.5422 71.8095 61.9357C71.8095 64.1274 70.0266 65.9103 67.835 65.9103V70.1909C72.3874 70.1909 76.0901 66.4882 76.0901 61.9357C76.0901 58.9008 78.56 56.4331 81.5949 56.4331C84.6298 56.4331 87.0976 58.9008 87.0976 61.9357V64.9942H91.3782V61.9357C91.3782 56.5422 86.9885 52.1525 81.5949 52.1525Z" fill="#D18A2E"/>
<path d="M147.026 50.0122L132.044 30.7495H129.904V35.0301C117.062 35.0301 110.641 54.2927 110.641 60.7136H91.3782C89.0239 60.7136 87.0976 62.6399 87.0976 64.9942V73.6752C87.0976 75.0044 86.7873 76.3142 86.1944 77.5042L74.2559 103.52L78.5364 105.66L94.3768 83.8802C95.1815 82.7715 96.47 82.1166 97.8376 82.1166H117.173C118.457 82.1166 119.673 82.6923 120.486 83.6875L138.465 105.66L142.745 103.52L128.365 76.8151C127.971 76.0852 127.8 75.2569 127.868 74.4308L129.904 50.0122L144.886 54.2927L147.026 50.0122Z" fill="#FFAB40"/>
<path d="M99.9393 73.5554H106.36C108.725 73.5554 110.641 71.6398 110.641 69.2748V60.7136H95.6587V69.2748C95.6587 71.6398 97.5743 73.5554 99.9393 73.5554Z" fill="#F44336"/>
<path d="M108.501 116.361C89.773 116.361 72.1284 107.222 61.2964 91.9192L64.7915 89.445C74.8209 103.62 91.1599 112.081 108.501 112.081C125.839 112.081 142.18 103.618 152.21 89.4429L155.705 91.917C144.873 107.222 127.226 116.361 108.501 116.361Z" fill="#F44336"/>
<path d="M134.184 43.5913C135.366 43.5913 136.324 42.633 136.324 41.451C136.324 40.2689 135.366 39.3107 134.184 39.3107C133.002 39.3107 132.043 40.2689 132.043 41.451C132.043 42.633 133.002 43.5913 134.184 43.5913Z" fill="#784719"/>
</g>
<defs>
<clipPath id="clip0_0_402">
<rect width="216.883" height="145" fill="white" transform="translate(0.0585938 0.5)"/>
</clipPath>
</defs>
</svg>
