<svg width="33" height="33" viewBox="0 0 33 33" fill="none" xmlns="http://www.w3.org/2000/svg">
<path d="M16.4999 0.531738C7.62241 0.531738 0.399902 7.75425 0.399902 16.6317C0.399902 23.5506 4.78721 29.4629 10.9254 31.7356C10.7486 30.1595 10.7763 27.5783 11.068 26.3286C11.3412 25.1547 12.8329 18.8476 12.8329 18.8476C12.8329 18.8476 12.3826 17.9457 12.3826 16.6138C12.3826 14.5207 13.5953 12.959 15.1055 12.959C16.3899 12.959 17.0093 13.9233 17.0093 15.0787C17.0093 16.3707 16.1879 18.3006 15.7624 20.0892C15.4076 21.5878 16.5138 22.8098 17.991 22.8098C20.6658 22.8098 22.7219 19.989 22.7219 15.918C22.7219 12.3147 20.1333 9.79499 16.4362 9.79499C12.1545 9.79499 9.64115 13.007 9.64115 16.3267C9.64115 17.6198 10.139 19.0068 10.7612 19.7616C10.8839 19.9109 10.9019 20.0412 10.8654 20.1928C10.7514 20.668 10.4979 21.6903 10.4475 21.8998C10.3821 22.1759 10.2293 22.2332 9.94445 22.1007C8.0644 21.2254 6.8893 18.4777 6.8893 16.2699C6.8893 11.5229 10.3381 7.16238 16.8339 7.16238C22.0551 7.16238 26.1122 10.8821 26.1122 15.8549C26.1122 21.0419 22.8412 25.216 18.3024 25.216C16.7772 25.216 15.3439 24.4236 14.8537 23.4876C14.8537 23.4876 14.0989 26.361 13.9154 27.0654C13.5986 28.2837 12.2429 30.8076 11.5623 31.954C13.1192 32.457 14.7778 32.7317 16.4999 32.7317C25.3777 32.7317 32.5999 25.5096 32.5999 16.6317C32.5999 7.75425 25.3777 0.531738 16.4999 0.531738Z" fill="#F26C62"/>
</svg>
