<svg width="31" height="32" viewBox="0 0 31 32" fill="none" xmlns="http://www.w3.org/2000/svg">
<path d="M9.2001 0.231934C4.1811 0.231934 0.100098 4.31293 0.100098 9.33193V21.9319C0.100098 26.9509 4.1811 31.0319 9.2001 31.0319H21.8001C26.8191 31.0319 30.9001 26.9509 30.9001 21.9319V9.33193C30.9001 4.31293 26.8191 0.231934 21.8001 0.231934H9.2001ZM23.9001 5.83193C24.6701 5.83193 25.3001 6.46193 25.3001 7.23193C25.3001 8.00193 24.6701 8.63193 23.9001 8.63193C23.1301 8.63193 22.5001 8.00193 22.5001 7.23193C22.5001 6.46193 23.1301 5.83193 23.9001 5.83193ZM15.5001 7.93193C19.7491 7.93193 23.2001 11.3829 23.2001 15.6319C23.2001 19.8809 19.7491 23.3319 15.5001 23.3319C11.2511 23.3319 7.8001 19.8809 7.8001 15.6319C7.8001 11.3829 11.2511 7.93193 15.5001 7.93193ZM15.5001 9.33193C12.0281 9.33193 9.2001 12.1599 9.2001 15.6319C9.2001 19.1039 12.0281 21.9319 15.5001 21.9319C18.9721 21.9319 21.8001 19.1039 21.8001 15.6319C21.8001 12.1599 18.9721 9.33193 15.5001 9.33193Z" fill="#F26C62"/>
</svg>
